<svg width="25" height="18" viewBox="0 0 25 18" fill="none" xmlns="http://www.w3.org/2000/svg">
<path d="M23.9294 3.45459C23.6478 2.40237 22.8208 1.57548 21.7686 1.29382C19.8634 0.782799 12.2202 0.782799 12.2202 0.782799C12.2202 0.782799 4.57704 0.782799 2.67178 1.29382C1.61957 1.57548 0.792684 2.40237 0.51102 3.45459C1.52967e-07 5.35984 0 9.33735 0 9.33735C0 9.33735 1.52967e-07 13.3149 0.51102 15.2201C0.792684 16.2724 1.61957 17.0992 2.67178 17.3809C4.57704 17.8919 12.2202 17.8919 12.2202 17.8919C12.2202 17.8919 19.8634 17.8919 21.7686 17.3809C22.8208 17.0992 23.6478 16.2724 23.9294 15.2201C24.4404 13.3149 24.4404 9.33735 24.4404 9.33735C24.4404 9.33735 24.4384 5.35984 23.9294 3.45459Z" fill="#FF0000"/>
<path d="M9.7738 13.0033L16.1233 9.33769L9.7738 5.67201V13.0033Z" fill="white"/>
</svg>
